<svg version="1.1" id="Warstwa_1" xmlns="http://www.w3.org/2000/svg" xmlns:xlink="http://www.w3.org/1999/xlink" x="0px" y="0px"
	 viewBox="0 0 2834.6 2834.6" style="enable-background:new 0 0 2834.6 2834.6;" xml:space="preserve">
<g>
	<path fill="#F1F5F9" d="M106.7,2773c-2.6-1.2-5.1-2.5-7.7-3.6c-19.6-7.9-30.3-22.9-31.6-43.4c-1.1-18.2,10.2-37.4,29.6-45.6
		c18.3-7.7,40-3.2,53,11.1c24.3,26.7,14.4,66-19.6,78.4c-2.2,0.8-4.2,2.1-6.2,3.1C118.3,2773,112.5,2773,106.7,2773z"/>
	<path fill="#F1F5F9" d="M343.9,2773c-2.6-1.2-5.1-2.6-7.7-3.6c-21.7-8.2-35-31-30.8-52.9c4.6-23.7,24.4-40.2,48-39.9c22.9,0.3,42.5,17.3,46.6,40.7
		c3.7,21.3-9.3,43.7-30.2,51.8c-2.9,1.1-5.7,2.6-8.5,3.9C355.5,2773,349.7,2773,343.9,2773z"/>
	<path fill="#F1F5F9" d="M581.1,2773c-2.6-1.2-5.1-2.6-7.7-3.6c-21.7-8.2-35-31-30.8-52.9c4.6-23.7,24.4-40.2,48-39.9c22.9,0.3,42.5,17.3,46.6,40.7
		c3.7,21.3-9.3,43.7-30.2,51.8c-2.9,1.1-5.7,2.6-8.5,3.9C592.7,2773,586.9,2773,581.1,2773z"/>
	<path fill="#F1F5F9" d="M818.2,2773c-2.6-1.2-5.1-2.6-7.7-3.6c-21.7-8.2-35-31-30.8-52.9c4.6-23.7,24.4-40.2,48-39.9c22.9,0.3,42.5,17.3,46.6,40.7
		c3.7,21.3-9.3,43.7-30.2,51.8c-2.9,1.1-5.7,2.6-8.5,3.9C829.8,2773,824,2773,818.2,2773z"/>
	<path fill="#F1F5F9" d="M1055.4,2773c-2.6-1.2-5.1-2.6-7.7-3.6c-21.7-8.2-35-31-30.8-52.9c4.6-23.7,24.4-40.2,48-39.9
		c22.9,0.3,42.5,17.3,46.6,40.7c3.7,21.3-9.3,43.7-30.2,51.8c-2.9,1.1-5.7,2.6-8.5,3.9C1067,2773,1061.2,2773,1055.4,2773z"/>
	<path fill="#F1F5F9" d="M1292.6,2773c-2.6-1.2-5.1-2.6-7.7-3.6c-21.7-8.2-35-31-30.8-52.9c4.6-23.7,24.4-40.2,48-39.9
		c22.9,0.3,42.5,17.3,46.6,40.7c3.7,21.3-9.3,43.7-30.2,51.8c-2.9,1.1-5.7,2.6-8.5,3.9C1304.2,2773,1298.4,2773,1292.6,2773z"/>
	<path fill="#F1F5F9" d="M1529.8,2773c-2.6-1.2-5.1-2.6-7.7-3.6c-21.7-8.2-35-31-30.8-52.9c4.6-23.7,24.4-40.2,48-39.9
		c22.9,0.3,42.5,17.3,46.6,40.7c3.7,21.3-9.3,43.7-30.2,51.8c-2.9,1.1-5.7,2.6-8.5,3.9C1541.3,2773,1535.6,2773,1529.8,2773z"/>
	<path fill="#F1F5F9" d="M1766.9,2773c-2.6-1.2-5.1-2.6-7.7-3.6c-21.7-8.2-35-31-30.8-52.9c4.6-23.7,24.4-40.2,48-39.9
		c22.9,0.3,42.5,17.3,46.6,40.7c3.7,21.3-9.3,43.7-30.2,51.8c-2.9,1.1-5.7,2.6-8.5,3.9C1778.5,2773,1772.7,2773,1766.9,2773z"/>
	<path fill="#F1F5F9" d="M2004.1,2773c-2.6-1.2-5.1-2.6-7.7-3.6c-21.7-8.2-35-31-30.8-52.9c4.6-23.7,24.4-40.2,48-39.9
		c22.9,0.3,42.5,17.3,46.6,40.7c3.7,21.3-9.3,43.7-30.2,51.8c-2.9,1.1-5.7,2.6-8.5,3.9C2015.7,2773,2009.9,2773,2004.1,2773z"/>
	<path fill="#F1F5F9" d="M2241.3,2773c-2.6-1.2-5.1-2.6-7.7-3.6c-21.7-8.2-35-31-30.8-52.9c4.6-23.7,24.4-40.2,48-39.9
		c22.9,0.3,42.5,17.3,46.6,40.7c3.7,21.3-9.3,43.7-30.2,51.8c-2.9,1.1-5.7,2.6-8.5,3.9C2252.9,2773,2247.1,2773,2241.3,2773z"/>
	<path fill="#F1F5F9" d="M2478.4,2773c-2.6-1.2-5.1-2.6-7.7-3.6c-21.7-8.2-35-31-30.8-52.9c4.6-23.7,24.4-40.2,48-39.9
		c22.9,0.3,42.5,17.3,46.6,40.7c3.7,21.3-9.3,43.7-30.2,51.8c-2.9,1.1-5.7,2.6-8.5,3.9C2490,2773,2484.2,2773,2478.4,2773z"/>
	<path fill="#F1F5F9" d="M2715.6,2773c-2.3-1.1-4.6-2.5-7-3.3c-22.5-8.3-36-31.3-31.4-53.8c5-24.1,25.8-40.5,50.1-39.1c25.6,1.5,44.1,24,44.1,44.4
		c0,25-9.9,40.4-33.7,49.2c-1.7,0.6-3.2,1.7-4.7,2.6C2727.2,2773,2721.4,2773,2715.6,2773z"/>
	<path fill="#F1F5F9" d="M1349.2,2012.7c0.1,26.1-21.3,47.8-47.5,48.1c-26.4,0.3-48.4-21.7-48.3-48.1c0.1-26,21.9-47.7,47.9-47.7
		C1327.3,1965.1,1349.1,1986.8,1349.2,2012.7z"/>
	<path fill="#F1F5F9" d="M1112,2013c0,26.1-21.7,47.7-47.8,47.8c-26.4,0.1-48.3-21.9-48.1-48.3c0.2-26,22.1-47.5,48.2-47.4
		C1090.4,1965.2,1112.1,1987,1112,2013z"/>
	<path fill="#F1F5F9" d="M826.5,1965.1c26.1-0.2,48.1,21.3,48.3,47.3c0.3,26.5-21.5,48.5-47.9,48.5c-26.1,0-47.9-21.6-47.9-47.7
		C778.9,1987.1,800.6,1965.2,826.5,1965.1z"/>
	<path fill="#F1F5F9" d="M589.6,1965.1c26.1-0.1,48,21.5,48.1,47.5c0.2,26.4-21.7,48.4-48.1,48.3c-26.2-0.1-47.8-21.8-47.7-47.9
		C541.8,1986.9,563.6,1965.1,589.6,1965.1z"/>
	<path fill="#F1F5F9" d="M352.5,1965.1c26,0,47.9,21.6,48,47.6c0.1,26.4-21.9,48.3-48.3,48.1c-26.2-0.2-47.7-21.9-47.6-48
		C304.7,1986.8,326.5,1965.1,352.5,1965.1z"/>
	<path fill="#F1F5F9" d="M163.4,2013.1c-0.1,26.1-21.8,47.8-47.9,47.7c-24.8-0.1-47.7-18.5-48-47.6c-0.3-28.8,23.5-48.2,48.3-48.1
		C141.7,1965.2,163.4,1987.1,163.4,2013.1z"/>
	<path fill="#F1F5F9" d="M1112,115.5c0,26.1-21.5,47.7-47.7,47.9c-26.4,0.2-48.4-21.8-48.2-48.2c0.2-26,22.1-47.6,48.1-47.5
		C1090.3,67.8,1112,89.5,1112,115.5z"/>
	<path fill="#F1F5F9" d="M2535.1,1776c-0.1,26.1-21.8,47.7-47.9,47.7c-26.1,0-47.9-21.6-47.9-47.7c-0.1-26.3,21.9-48.2,48.3-48.1
		C2513.5,1728.1,2535.2,1750,2535.1,1776z"/>
	<path fill="#F1F5F9" d="M2297.9,1775.5c0.1,26.1-21.3,47.8-47.5,48.1c-26.4,0.3-48.5-21.7-48.4-48c0.1-26,21.9-47.7,47.9-47.7
		C2276,1727.9,2297.8,1749.6,2297.9,1775.5z"/>
	<path fill="#F1F5F9" d="M2013,1727.9c26,0.1,47.7,21.9,47.7,47.9c0,26.1-21.6,47.7-47.8,47.8c-26.4,0.1-48.3-21.9-48.1-48.3
		C1965.1,1749.3,1987,1727.8,2013,1727.9z"/>
	<path fill="#F1F5F9" d="M1823.5,1775.9c-0.1,26.1-21.8,47.7-47.9,47.7c-26.1,0-47.9-21.6-48-47.6c-0.1-26.3,21.9-48.2,48.3-48.1
		C1801.9,1728,1823.6,1749.9,1823.5,1775.9z"/>
	<path fill="#F1F5F9" d="M1586.4,1775.7c0,26.1-21.5,47.8-47.7,47.9c-26.4,0.2-48.4-21.8-48.2-48.2c0.2-26,22-47.6,48.1-47.5
		C1564.6,1727.9,1586.3,1749.7,1586.4,1775.7z"/>
	<path fill="#F1F5F9" d="M1349.2,1776.1c-0.1,26.1-21.9,47.6-48,47.6c-26.1-0.1-47.8-21.7-47.9-47.8c0-26.3,22-48.2,48.4-48
		C1327.7,1728.1,1349.3,1750,1349.2,1776.1z"/>
	<path fill="#F1F5F9" d="M1112,1775.8c0,26.1-21.6,47.7-47.7,47.9c-26.4,0.1-48.3-21.9-48.1-48.3c0.2-26,22.1-47.5,48.1-47.5
		C1090.3,1728,1112,1749.8,1112,1775.8z"/>
	<path fill="#F1F5F9" d="M826.6,1727.9c26.1-0.1,48,21.4,48.2,47.4c0.2,26.5-21.6,48.4-48,48.4c-26.1-0.1-47.8-21.7-47.8-47.8
		C779,1749.9,800.7,1728,826.6,1727.9z"/>
	<path fill="#F1F5F9" d="M589.9,1727.9c26,0.1,47.7,21.8,47.8,47.8c0,26.1-21.5,47.7-47.7,47.9c-26.4,0.2-48.4-21.8-48.2-48.2
		C542,1749.4,563.9,1727.8,589.9,1727.9z"/>
	<path fill="#F1F5F9" d="M400.5,1775.7c0,26.1-21.5,47.8-47.7,47.9c-26.4,0.2-48.4-21.8-48.2-48.2c0.2-26,22-47.6,48.1-47.5
		C378.7,1727.9,400.5,1749.7,400.5,1775.7z"/>
	<path fill="#F1F5F9" d="M163.4,1776.1c-0.1,26.1-21.9,47.8-48.1,47.5c-25-0.2-47.7-18.9-47.8-47.7c-0.1-29,23.8-48.2,48.4-48
		C141.9,1728.1,163.5,1750,163.4,1776.1z"/>
	<path fill="#F1F5F9" d="M1301.2,67.7c26,0,47.9,21.6,48,47.6c0.1,26.4-21.9,48.3-48.3,48.1c-26.2-0.2-47.7-21.9-47.6-48
		C1253.4,89.4,1275.2,67.7,1301.2,67.7z"/>
	<path fill="#F1F5F9" d="M2487.1,1490.7c26,0,47.8,21.7,47.9,47.7c0.1,26.4-21.9,48.3-48.3,48.1c-26.2-0.3-47.7-22-47.6-48.1
		C2439.3,1512.4,2461.1,1490.7,2487.1,1490.7z"/>
	<path fill="#F1F5F9" d="M2297.9,1538.8c-0.1,26.1-21.9,47.7-48,47.6c-26.1,0-47.8-21.7-47.9-47.7c-0.1-26.3,22-48.2,48.4-48
		C2276.4,1490.9,2298,1512.8,2297.9,1538.8z"/>
	<path fill="#F1F5F9" d="M2013.2,1490.7c26,0.2,47.6,22.1,47.5,48.1c-0.1,26.1-21.8,47.7-47.9,47.7c-26.4,0-48.2-22.1-47.9-48.5
		C1965.1,1512,1987.1,1490.6,2013.2,1490.7z"/>
	<path fill="#F1F5F9" d="M1775.4,1490.7c26.1-0.1,47.9,21.5,48.1,47.5c0.2,26.4-21.7,48.4-48.1,48.2c-26.2-0.1-47.7-21.8-47.7-47.9
		C1727.7,1512.6,1749.5,1490.8,1775.4,1490.7z"/>
	<path fill="#F1F5F9" d="M1586.4,1538.7c-0.1,26.1-21.7,47.7-47.9,47.7c-26.1,0-47.9-21.6-48-47.6c-0.1-26.3,21.9-48.3,48.3-48.1
		C1564.8,1490.9,1586.4,1512.7,1586.4,1538.7z"/>
	<path fill="#F1F5F9" d="M1301.2,1490.7c26.1,0,47.9,21.6,48,47.6c0.1,26.4-21.8,48.4-48.2,48.2c-26.2-0.2-47.7-21.9-47.6-48
		C1253.4,1512.5,1275.2,1490.8,1301.2,1490.7z"/>
	<path fill="#F1F5F9" d="M1112,1538.8c-0.1,26.1-21.8,47.7-47.9,47.7c-26.1,0-47.9-21.6-48-47.7c-0.1-26.3,21.9-48.2,48.3-48.1
		C1090.5,1490.9,1112.1,1512.8,1112,1538.8z"/>
	<path fill="#F1F5F9" d="M874.9,1538.8c-0.1,26.1-21.8,47.7-47.9,47.7c-26.1,0-47.9-21.6-48-47.6c-0.1-26.3,21.9-48.2,48.3-48.1
		C853.3,1490.9,874.9,1512.8,874.9,1538.8z"/>
	<path fill="#F1F5F9" d="M637.7,1538.4c0.1,26.1-21.4,47.8-47.5,48.1c-26.4,0.3-48.4-21.7-48.3-48.1c0.1-26,21.9-47.7,47.9-47.7
		C615.8,1490.7,637.6,1512.4,637.7,1538.4z"/>
	<path fill="#F1F5F9" d="M400.5,1538.3c0.1,26.1-21.3,47.8-47.5,48.1c-26.4,0.3-48.5-21.6-48.4-48c0.1-26,21.9-47.7,47.9-47.7
		C378.6,1490.7,400.4,1512.4,400.5,1538.3z"/>
	<path fill="#F1F5F9" d="M163.3,1539.1c-0.2,26-22.2,47.7-48.2,47.3c-25.2-0.3-47.7-19.4-47.7-47.9c0-29.2,24.1-48.1,48.6-47.8
		C142,1491,163.6,1513,163.3,1539.1z"/>
	<path fill="#F1F5F9" d="M115.1,67.7c26.1-0.1,48.1,21.4,48.3,47.3c0.2,26.5-21.6,48.6-48,48.4c-24.9-0.2-47.7-18.8-47.9-47.7
		C67.3,87.3,90.4,67.9,115.1,67.7z"/>
	<path fill="#F1F5F9" d="M353,67.7c26,0.1,47.6,22,47.6,48c-0.1,26.1-21.8,47.7-47.9,47.7c-26.4,0-48.3-22-48-48.4C304.9,89.1,326.9,67.6,353,67.7z
		"/>
	<path fill="#F1F5F9" d="M2487.5,2439.4c26,0.1,47.7,22,47.6,48c-0.1,26.1-21.7,47.7-47.9,47.7c-26.4,0-48.3-22-48-48.4
		C2439.5,2460.8,2461.4,2439.3,2487.5,2439.4z"/>
	<path fill="#F1F5F9" d="M2297.9,2487.7c-0.2,26-22.1,47.6-48.2,47.4c-26.2-0.2-47.7-21.8-47.7-47.9c0-26.3,22.1-48.1,48.6-47.8
		C2276.5,2439.7,2298.1,2461.7,2297.9,2487.7z"/>
	<path fill="#F1F5F9" d="M2012.5,2439.4c26.1-0.1,48,21.4,48.3,47.3c0.2,26.5-21.6,48.4-48,48.4c-26.1,0-47.8-21.7-47.9-47.7
		C1964.8,2461.4,1986.5,2439.5,2012.5,2439.4z"/>
	<path fill="#F1F5F9" d="M1823.5,2487.4c-0.1,26.1-21.7,47.7-47.9,47.7c-26.1,0-47.9-21.6-48-47.6c-0.1-26.3,21.9-48.3,48.3-48.1
		C1801.9,2439.5,1823.6,2461.4,1823.5,2487.4z"/>
	<path fill="#F1F5F9" d="M1538.8,2439.4c26,0.2,47.6,22,47.5,48.1c-0.1,26.1-21.8,47.7-47.9,47.7c-26.4,0-48.2-22-47.9-48.5
		C1490.8,2460.7,1512.7,2439.3,1538.8,2439.4z"/>
	<path fill="#F1F5F9" d="M1301.2,2439.4c26,0,47.9,21.7,48,47.6c0.1,26.4-21.9,48.3-48.3,48.1c-26.2-0.2-47.7-21.9-47.6-48
		C1253.4,2461.1,1275.2,2439.4,1301.2,2439.4z"/>
	<path fill="#F1F5F9" d="M1064,2439.4c26.1-0.1,47.9,21.5,48.1,47.5c0.2,26.4-21.8,48.4-48.2,48.2c-26.2-0.2-47.7-21.8-47.7-47.9
		C1016.2,2461.2,1038,2439.5,1064,2439.4z"/>
	<path fill="#F1F5F9" d="M827.1,2439.4c26,0.1,47.7,21.8,47.8,47.8c0,26.1-21.5,47.7-47.7,47.9c-26.4,0.2-48.4-21.8-48.2-48.2
		C779.2,2460.9,801,2439.3,827.1,2439.4z"/>
	<path fill="#F1F5F9" d="M589.4,2439.4c26.1-0.1,48,21.4,48.3,47.3c0.2,26.5-21.6,48.4-48,48.4c-26.1,0-47.8-21.7-47.9-47.7
		C541.8,2461.4,563.5,2439.5,589.4,2439.4z"/>
	<path fill="#F1F5F9" d="M352.5,2439.4c26.1,0,47.9,21.6,48,47.5c0.1,26.4-21.8,48.4-48.2,48.2c-26.2-0.2-47.7-21.9-47.7-47.9
		C304.7,2461.2,326.5,2439.5,352.5,2439.4z"/>
	<path fill="#F1F5F9" d="M115.3,2439.4c26.1,0,47.9,21.6,48,47.6c0.1,26.4-21.9,48.5-48.3,48.1c-25.2-0.3-47.7-19.4-47.6-47.9
		C67.5,2458.4,91,2439.5,115.3,2439.4z"/>
	<path fill="#F1F5F9" d="M589.7,67.7c26,0,47.9,21.6,48,47.6c0.1,26.4-21.9,48.3-48.3,48.1c-26.2-0.2-47.7-21.9-47.6-48
		C541.9,89.4,563.7,67.7,589.7,67.7z"/>
	<path fill="#F1F5F9" d="M2487.1,2202.2c26,0,47.9,21.6,48,47.6c0.1,26.4-21.9,48.3-48.3,48.1c-26.2-0.2-47.7-21.9-47.6-48
		C2439.3,2224,2461.1,2202.3,2487.1,2202.2z"/>
	<path fill="#F1F5F9" d="M2249.8,2202.2c26.1-0.1,48,21.5,48.1,47.5c0.2,26.4-21.7,48.4-48.1,48.3c-26.2-0.1-47.8-21.8-47.8-47.9
		C2202,2224.1,2223.8,2202.3,2249.8,2202.2z"/>
	<path fill="#F1F5F9" d="M2060.7,2250.6c-0.2,26-22.1,47.6-48.2,47.4c-26.2-0.2-47.7-21.9-47.7-47.9c0-26.3,22.2-48.1,48.6-47.8
		C2039.4,2202.5,2060.9,2224.5,2060.7,2250.6z"/>
	<path fill="#F1F5F9" d="M1727.7,2250.1c0-26,21.8-47.8,47.7-47.9c26.4-0.1,48.3,21.9,48.1,48.3c-0.2,26-22,47.6-48.1,47.5
		C1749.3,2297.8,1727.7,2276.2,1727.7,2250.1z"/>
	<path fill="#F1F5F9" d="M1586.4,2250.5c-0.2,26-22,47.6-48.1,47.5c-26.2-0.1-47.8-21.7-47.8-47.8c0-26.3,22.1-48.1,48.5-47.9
		C1564.9,2202.5,1586.5,2224.4,1586.4,2250.5z"/>
	<path fill="#F1F5F9" d="M1349.2,2250.6c-0.2,26-22.1,47.6-48.2,47.4c-26.2-0.2-47.7-21.9-47.7-47.9c0.1-26.3,22.2-48,48.6-47.8
		C1327.9,2202.5,1349.4,2224.5,1349.2,2250.6z"/>
	<path fill="#F1F5F9" d="M1063.8,2202.2c26.1-0.1,48,21.4,48.3,47.3c0.2,26.5-21.5,48.4-48,48.4c-26.1,0-47.8-21.7-47.9-47.7
		C1016.1,2224.3,1037.8,2202.4,1063.8,2202.2z"/>
	<path fill="#F1F5F9" d="M874.9,2249.9c0.1,26.1-21.3,47.8-47.5,48.1c-26.4,0.3-48.4-21.7-48.3-48.1c0.1-26,21.9-47.7,47.9-47.7
		C853,2202.2,874.8,2223.9,874.9,2249.9z"/>
	<path fill="#F1F5F9" d="M589.9,2202.2c26,0,47.8,21.8,47.8,47.8c0,26.1-21.5,47.8-47.6,48c-26.4,0.2-48.4-21.8-48.2-48.2
		C542,2223.8,563.8,2202.2,589.9,2202.2z"/>
	<path fill="#F1F5F9" d="M304.7,2250.1c0-26,21.8-47.8,47.8-47.9c26.4-0.1,48.3,21.9,48.1,48.3c-0.2,26-22,47.6-48.1,47.5
		C326.2,2297.8,304.6,2276.2,304.7,2250.1z"/>
	<path fill="#F1F5F9" d="M115.1,2202.2c26.1-0.1,48.1,21.4,48.3,47.3c0.2,26.5-21.6,48.6-48,48.4c-24.9-0.2-47.7-18.8-47.9-47.7
		C67.3,2221.8,90.4,2202.5,115.1,2202.2z"/>
	<path fill="#F1F5F9" d="M826.6,67.7c26.1-0.1,48,21.4,48.2,47.4c0.2,26.5-21.6,48.4-48,48.4c-26.1-0.1-47.8-21.7-47.8-47.8
		C779,89.7,800.7,67.8,826.6,67.7z"/>
	<path fill="#F1F5F9" d="M2535.1,2013c0,26.1-21.6,47.7-47.8,47.8c-26.4,0.1-48.3-21.9-48.1-48.3c0.2-26,22.1-47.5,48.2-47.4
		C2513.4,1965.2,2535.1,1987,2535.1,2013z"/>
	<path fill="#F1F5F9" d="M2250.1,1965.1c26,0.1,47.7,21.9,47.7,47.8c0,26.1-21.6,47.7-47.7,47.9c-26.4,0.1-48.3-21.8-48.2-48.2
		C2202.2,1986.6,2224.1,1965,2250.1,1965.1z"/>
	<path fill="#F1F5F9" d="M2013.2,1965.1c26,0.1,47.6,22,47.6,48c-0.1,26.1-21.8,47.7-47.9,47.7c-26.4,0-48.3-22-48-48.4
		C1965.1,1986.4,1987.1,1964.9,2013.2,1965.1z"/>
	<path fill="#F1F5F9" d="M1775.7,1965.1c26,0,47.8,21.7,47.9,47.7c0.1,26.4-22,48.3-48.4,48c-26.2-0.3-47.6-22-47.5-48.1
		C1727.8,1986.7,1749.6,1965,1775.7,1965.1z"/>
	<path fill="#F1F5F9" d="M1586.4,2013.4c-0.2,26-22.1,47.6-48.2,47.4c-26.2-0.2-47.7-21.9-47.7-47.9c0-26.3,22.2-48.1,48.6-47.8
		C1565,1965.3,1586.6,1987.4,1586.4,2013.4z"/>
	<path fill="#F1F5F9" d="M1300.9,779.2c26.1-0.1,48,21.4,48.3,47.3c0.3,26.5-21.5,48.5-48,48.4c-26.1,0-47.8-21.6-47.9-47.7
		C1253.3,801.3,1275,779.4,1300.9,779.2z"/>
	<path fill="#F1F5F9" d="M1112,827.2c-0.1,26.1-21.7,47.7-47.9,47.7c-26.1,0-47.9-21.6-48-47.6c-0.1-26.3,21.9-48.2,48.3-48.1
		C1090.4,779.3,1112.1,801.2,1112,827.2z"/>
	<path fill="#F1F5F9" d="M874.9,827.2c-0.1,26.1-21.7,47.7-47.9,47.7c-26.1,0-47.9-21.6-48-47.6c-0.1-26.3,21.9-48.3,48.3-48.1
		C853.2,779.3,874.9,801.2,874.9,827.2z"/>
	<path fill="#F1F5F9" d="M589.8,779.2c26,0,47.8,21.7,47.9,47.7c0.1,26.4-21.9,48.3-48.3,48.1c-26.2-0.3-47.7-21.9-47.6-48
		C541.9,800.9,563.7,779.2,589.8,779.2z"/>
	<path fill="#F1F5F9" d="M352.7,779.2c26,0.1,47.8,21.8,47.8,47.8c0,26.1-21.5,47.7-47.7,47.9c-26.4,0.2-48.4-21.8-48.2-48.2
		C304.8,800.8,326.7,779.2,352.7,779.2z"/>
	<path fill="#F1F5F9" d="M163.4,827c0,26.1-21.5,47.9-47.7,47.9c-25.7,0-48.4-19.5-48.3-48.1c0.2-29,23.9-47.6,48-47.6
		C141.5,779.2,163.3,801,163.4,827z"/>
	<path fill="#F1F5F9" d="M2249.9,67.7c26.1,0,47.9,21.6,48,47.6c0.1,26.4-21.8,48.4-48.2,48.2c-26.2-0.2-47.7-21.9-47.6-48
		C2202.1,89.5,2223.9,67.7,2249.9,67.7z"/>
	<path fill="#F1F5F9" d="M2487.1,542c26,0,47.8,21.7,47.9,47.7c0.1,26.4-21.9,48.3-48.3,48.1c-26.2-0.3-47.7-22-47.6-48.1
		C2439.3,563.7,2461.1,542,2487.1,542z"/>
	<path fill="#F1F5F9" d="M2297.9,590.2c-0.1,26.1-21.9,47.6-48,47.6c-26.1-0.1-47.8-21.7-47.8-47.8c0-26.3,22-48.1,48.5-47.9
		C2276.4,542.2,2298,564.2,2297.9,590.2z"/>
	<path fill="#F1F5F9" d="M2060.7,589.8c0,26.1-21.5,47.8-47.6,48c-26.4,0.2-48.4-21.8-48.2-48.2c0.2-26,22-47.6,48-47.6
		C2038.9,542.1,2060.7,563.8,2060.7,589.8z"/>
	<path fill="#F1F5F9" d="M1775.9,542c26,0.1,47.7,21.9,47.7,47.9c0,26.1-21.6,47.7-47.8,47.8c-26.4,0.1-48.3-21.9-48.1-48.3
		C1727.9,563.5,1749.8,541.9,1775.9,542z"/>
	<path fill="#F1F5F9" d="M1490.5,589.9c0-26,21.8-47.8,47.8-47.9c26.4-0.1,48.3,21.9,48.1,48.3c-0.2,26-22,47.6-48.1,47.5
		C1512.1,637.6,1490.5,616,1490.5,589.9z"/>
	<path fill="#F1F5F9" d="M1301.3,542c26,0,47.8,21.7,47.9,47.7c0.1,26.4-22,48.3-48.3,48c-26.2-0.3-47.6-22-47.5-48.1
		C1253.5,563.7,1275.3,542,1301.3,542z"/>
	<path fill="#F1F5F9" d="M1112,590.2c-0.1,26.1-21.9,47.6-48,47.6c-26.1,0-47.8-21.7-47.9-47.7c-0.1-26.3,22-48.2,48.4-48
		C1090.5,542.2,1112.2,564.2,1112,590.2z"/>
	<path fill="#F1F5F9" d="M874.9,589.7c0.1,26.1-21.4,47.8-47.6,48c-26.4,0.2-48.4-21.7-48.3-48.1c0.1-26,21.9-47.7,48-47.6
		C853,542,874.8,563.7,874.9,589.7z"/>
	<path fill="#F1F5F9" d="M637.7,590.1c-0.1,26.1-21.8,47.7-47.9,47.7c-26.1,0-47.9-21.6-48-47.6c-0.1-26.3,21.9-48.2,48.3-48.1
		C616.1,542.2,637.8,564.1,637.7,590.1z"/>
	<path fill="#F1F5F9" d="M352.3,542c26.1-0.1,48,21.4,48.2,47.4c0.2,26.5-21.6,48.4-48,48.4c-26.1-0.1-47.8-21.7-47.8-47.8
		C304.6,564,326.3,542.2,352.3,542z"/>
	<path fill="#F1F5F9" d="M163.4,590.4c-0.2,26-22.1,47.7-48.2,47.4c-25.2-0.3-47.7-19.4-47.7-47.9c0-29.2,24.1-48.1,48.6-47.8
		C142,542.3,163.6,564.3,163.4,590.4z"/>
	<path fill="#F1F5F9" d="M2486.9,67.7c26.1-0.1,48,21.5,48.1,47.5c0.2,26.4-21.7,48.4-48.1,48.3c-26.2-0.1-47.8-21.8-47.7-47.9
		C2439.2,89.6,2460.9,67.8,2486.9,67.7z"/>
	<path fill="#F1F5F9" d="M2487.4,304.9c26,0.1,47.7,21.9,47.7,47.9c0,26.1-21.6,47.7-47.8,47.8c-26.4,0.1-48.3-21.9-48.1-48.3
		C2439.4,326.3,2461.3,304.8,2487.4,304.9z"/>
	<path fill="#F1F5F9" d="M2297.9,352.5c0.1,26.1-21.3,47.8-47.5,48.1c-26.4,0.3-48.5-21.6-48.4-48c0.1-26,21.9-47.7,47.9-47.7
		C2275.9,304.8,2297.8,326.5,2297.9,352.5z"/>
	<path fill="#F1F5F9" d="M2060.7,353.2c-0.2,26-22.1,47.6-48.2,47.4c-26.2-0.2-47.7-21.8-47.7-47.9c0-26.3,22.2-48.1,48.6-47.8
		C2039.4,305.1,2060.9,327.2,2060.7,353.2z"/>
	<path fill="#F1F5F9" d="M1775.8,304.9c26,0.1,47.7,21.9,47.7,47.9c0,26.1-21.6,47.7-47.7,47.8c-26.4,0.1-48.3-21.9-48.1-48.3
		C1727.9,326.3,1749.8,304.8,1775.8,304.9z"/>
	<path fill="#F1F5F9" d="M1586.4,352.6c0.1,26.1-21.4,47.8-47.6,48c-26.4,0.2-48.4-21.7-48.3-48.1c0.1-26,22-47.6,48-47.6
		C1564.5,304.9,1586.3,326.6,1586.4,352.6z"/>
	<path fill="#F1F5F9" d="M1349.2,352.7c0,26.1-21.5,47.7-47.7,47.9c-26.4,0.1-48.4-21.8-48.2-48.2c0.2-26,22.1-47.6,48.1-47.5
		C1327.5,304.9,1349.2,326.7,1349.2,352.7z"/>
	<path fill="#F1F5F9" d="M1064.3,304.9c26,0.1,47.7,21.9,47.7,47.9c0,26.1-21.6,47.7-47.7,47.8c-26.4,0.1-48.3-21.9-48.1-48.3
		C1016.4,326.3,1038.2,304.8,1064.3,304.9z"/>
	<path fill="#F1F5F9" d="M826.7,304.9c26.1-0.1,48,21.5,48.1,47.5c0.2,26.4-21.7,48.4-48.1,48.3c-26.2-0.1-47.8-21.8-47.8-47.8
		C779,326.8,800.7,305,826.7,304.9z"/>
	<path fill="#F1F5F9" d="M637.7,352.8c0,26.1-21.7,47.7-47.8,47.8c-26.1,0.1-47.9-21.5-48-47.6c-0.1-26.3,21.8-48.3,48.2-48.2
		C616.1,305,637.7,326.8,637.7,352.8z"/>
	<path fill="#F1F5F9" d="M352.4,304.9c26.1-0.1,47.9,21.5,48.1,47.5c0.2,26.4-21.7,48.4-48.1,48.2c-26.2-0.1-47.7-21.8-47.7-47.9
		C304.7,326.7,326.4,304.9,352.4,304.9z"/>
	<path fill="#F1F5F9" d="M115.3,304.9c26.1,0,47.9,21.6,48,47.6c0.1,26.4-21.9,48.5-48.3,48.1c-25.2-0.3-47.7-19.4-47.6-47.9
		C67.5,323.8,91,305,115.3,304.9z"/>
	<path fill="#F1F5F9" d="M1586.4,115.8c-0.1,26.1-21.9,47.6-48,47.6c-26.1-0.1-47.8-21.7-47.9-47.8c0-26.3,22-48.2,48.4-48
		C1564.9,67.9,1586.5,89.8,1586.4,115.8z"/>
	<path fill="#F1F5F9" d="M2535.1,1301.4c0,26.1-21.5,47.8-47.7,47.9c-26.4,0.2-48.4-21.8-48.2-48.2c0.2-26,22-47.6,48.1-47.5
		C2513.3,1253.6,2535,1275.4,2535.1,1301.4z"/>
	<path fill="#F1F5F9" d="M2202,1301.4c0-26,21.8-47.8,47.7-47.9c26.4-0.1,48.3,21.9,48.1,48.3c-0.2,26-22,47.6-48.1,47.5
		C2223.6,1349.2,2202,1327.5,2202,1301.4z"/>
	<path fill="#F1F5F9" d="M2060.7,1301.4c0,26.1-21.5,47.7-47.7,47.9c-26.4,0.2-48.4-21.8-48.2-48.2c0.2-26,22-47.6,48.1-47.5
		C2039,1253.6,2060.7,1275.4,2060.7,1301.4z"/>
	<path fill="#F1F5F9" d="M1823.5,1301.8c-0.2,26-22,47.6-48.1,47.5c-26.2-0.1-47.8-21.8-47.8-47.8c0-26.3,22.1-48.1,48.5-47.9
		C1802.1,1253.8,1823.7,1275.8,1823.5,1301.8z"/>
	<path fill="#F1F5F9" d="M1538.3,1253.6c26.1,0,47.9,21.6,48,47.5c0.1,26.4-21.8,48.4-48.2,48.2c-26.2-0.2-47.7-21.9-47.7-47.9
		C1490.6,1275.4,1512.3,1253.6,1538.3,1253.6z"/>
	<path fill="#F1F5F9" d="M1301.4,1253.6c26,0,47.8,21.8,47.9,47.7c0.1,26.1-21.4,47.8-47.6,48c-26.4,0.2-48.4-21.7-48.3-48.1
		C1253.5,1275.2,1275.3,1253.5,1301.4,1253.6z"/>
	<path fill="#F1F5F9" d="M1064.1,1253.6c26,0,47.8,21.7,47.9,47.7c0.1,26.4-21.9,48.3-48.3,48.1c-26.2-0.3-47.7-22-47.5-48.1
		C1016.3,1275.2,1038.1,1253.6,1064.1,1253.6z"/>
	<path fill="#F1F5F9" d="M827.3,1253.6c26,0.1,47.6,22,47.6,48c-0.1,26.1-21.8,47.7-47.9,47.7c-26.4,0-48.3-22-48-48.4
		C779.3,1274.9,801.2,1253.4,827.3,1253.6z"/>
	<path fill="#F1F5F9" d="M637.7,1301.7c-0.1,26.1-21.9,47.7-48,47.6c-26.1,0-47.8-21.7-47.9-47.7c-0.1-26.3,22-48.2,48.4-48
		C616.2,1253.7,637.8,1275.7,637.7,1301.7z"/>
	<path fill="#F1F5F9" d="M400.5,1301.8c-0.2,26-22,47.6-48.1,47.5c-26.2-0.1-47.8-21.8-47.8-47.8c0-26.3,22.1-48.1,48.5-47.9
		C379.1,1253.8,400.7,1275.8,400.5,1301.8z"/>
	<path fill="#F1F5F9" d="M163.4,1301.5c-0.1,26.1-21.7,47.8-47.9,47.7c-24.7-0.1-47.7-18.4-48-47.6c-0.3-28.8,23.4-48.3,48.3-48.1
		C141.7,1253.7,163.4,1275.5,163.4,1301.5z"/>
	<path fill="#F1F5F9" d="M1775.5,67.7c26.1-0.1,47.9,21.6,48.1,47.5c0.2,26.4-21.8,48.4-48.2,48.2c-26.2-0.2-47.7-21.8-47.7-47.9
		C1727.7,89.5,1749.5,67.8,1775.5,67.7z"/>
	<path fill="#F1F5F9" d="M2535.1,1064.7c-0.2,26-22.1,47.6-48.2,47.4c-26.2-0.2-47.7-21.9-47.7-47.9c0-26.3,22.2-48,48.6-47.8
		C2513.7,1016.6,2535.3,1038.7,2535.1,1064.7z"/>
	<path fill="#F1F5F9" d="M2249.9,1016.4c26,0,47.9,21.7,48,47.6c0.1,26.4-21.9,48.3-48.3,48.1c-26.2-0.2-47.7-21.9-47.6-48
		C2202.1,1038.1,2223.9,1016.4,2249.9,1016.4z"/>
	<path fill="#F1F5F9" d="M2060.7,1064.3c0,26.1-21.6,47.7-47.7,47.9c-26.4,0.1-48.3-21.9-48.1-48.3c0.2-26,22.1-47.5,48.1-47.5
		C2039,1016.5,2060.7,1038.3,2060.7,1064.3z"/>
	<path fill="#F1F5F9" d="M1823.5,1064.6c-0.2,26-22,47.6-48.1,47.5c-26.2-0.1-47.8-21.7-47.8-47.8c0-26.3,22.1-48.1,48.5-47.9
		C1802.1,1016.6,1823.7,1038.6,1823.5,1064.6z"/>
	<path fill="#F1F5F9" d="M1586.4,1064.2c0,26.1-21.5,47.7-47.7,47.9c-26.4,0.1-48.4-21.8-48.2-48.2c0.2-26,22.1-47.6,48.1-47.5
		C1564.6,1016.5,1586.4,1038.2,1586.4,1064.2z"/>
	<path fill="#F1F5F9" d="M1301.2,1016.4c26.1,0,47.9,21.6,48,47.6c0.1,26.4-21.8,48.4-48.2,48.2c-26.2-0.2-47.7-21.9-47.6-48
		C1253.4,1038.2,1275.2,1016.4,1301.2,1016.4z"/>
	<path fill="#F1F5F9" d="M1064.4,1016.4c26,0.1,47.7,21.9,47.6,48c0,26.1-21.7,47.7-47.8,47.8c-26.4,0.1-48.3-22-48-48.4
		C1016.4,1037.8,1038.3,1016.3,1064.4,1016.4z"/>
	<path fill="#F1F5F9" d="M874.9,1064.6c-0.1,26-22,47.6-48.1,47.5c-26.1-0.1-47.8-21.7-47.8-47.8c0-26.3,22-48.1,48.5-47.9
		C853.4,1016.6,875,1038.6,874.9,1064.6z"/>
	<path fill="#F1F5F9" d="M589.6,1016.4c26.1-0.1,47.9,21.6,48.1,47.5c0.2,26.4-21.8,48.4-48.2,48.2c-26.2-0.2-47.7-21.8-47.7-47.9
		C541.9,1038.2,563.6,1016.4,589.6,1016.4z"/>
	<path fill="#F1F5F9" d="M400.5,1064.4c-0.1,26.1-21.8,47.7-47.9,47.7c-26.1,0-47.9-21.6-47.9-47.7c-0.1-26.3,21.9-48.2,48.3-48.1
		C379,1016.5,400.6,1038.4,400.5,1064.4z"/>
	<path fill="#F1F5F9" d="M163.4,1064.4c-0.1,26.1-21.8,47.8-47.9,47.7c-24.7-0.1-47.7-18.5-48-47.6c-0.3-28.8,23.4-48.2,48.3-48.1
		C141.7,1016.5,163.4,1038.4,163.4,1064.4z"/>
	<path fill="#F1F5F9" d="M2060.7,115.7c-0.1,26.1-21.7,47.7-47.9,47.7c-26.1,0-47.9-21.6-48-47.6c-0.1-26.3,21.9-48.2,48.3-48.1
		C2039.1,67.8,2060.8,89.7,2060.7,115.7z"/>
	<path fill="#F1F5F9" d="M2487,779.2c26.1,0,47.9,21.6,48,47.5c0.1,26.4-21.8,48.4-48.2,48.2c-26.2-0.2-47.7-21.9-47.7-47.9
		C2439.2,801,2461,779.3,2487,779.2z"/>
	<path fill="#F1F5F9" d="M2297.9,827.1c0,26.1-21.6,47.7-47.8,47.8c-26.4,0.1-48.3-21.9-48.1-48.3c0.2-26,22.1-47.5,48.2-47.4
		C2276.2,779.3,2297.9,801.1,2297.9,827.1z"/>
	<path fill="#F1F5F9" d="M2060.7,827.2c0,26.1-21.7,47.7-47.8,47.8c-26.1,0.1-47.9-21.5-48-47.6c-0.1-26.3,21.8-48.3,48.2-48.2
		C2039.1,779.3,2060.8,801.2,2060.7,827.2z"/>
	<path fill="#F1F5F9" d="M1775.9,779.2c26,0.1,47.7,22,47.6,48c0,26.1-21.7,47.7-47.8,47.8c-26.4,0.1-48.3-22-48-48.4
		C1727.9,800.6,1749.8,779.1,1775.9,779.2z"/>
	<path fill="#F1F5F9" d="M1538.6,779.2c26,0.1,47.8,21.8,47.8,47.8c0,26.1-21.5,47.7-47.7,47.9c-26.4,0.2-48.4-21.8-48.2-48.2
		C1490.7,800.8,1512.5,779.2,1538.6,779.2z"/>
	<path fill="#F1F5F9" d="M2771.3,2487.7c1.8,25.5-21.1,47.8-47.5,47.5c-26.2-0.3-47.7-22.1-47.5-48.2c0.2-26,22.1-47.4,48.3-47.5
		C2748,2439.3,2773.3,2459.8,2771.3,2487.7z"/>
	<path fill="#F1F5F9" d="M2771.3,2250.8c1.7,24.7-20.5,47.1-47,47.2c-26.2,0-47.9-21.7-48-47.8c0-26.4,22.1-48.1,48.6-48
		C2747.9,2202.3,2773.4,2222.4,2771.3,2250.8z"/>
	<path fill="#F1F5F9" d="M2771.3,2012.9c1.9,26.2-21.3,47.9-47,47.9c-26.2,0-47.9-21.7-47.9-47.8c0-26,21.8-47.7,47.8-48
		C2748.1,1964.8,2773.2,1985.7,2771.3,2012.9z"/>
	<path fill="#F1F5F9" d="M2771.3,1775.9c1.8,26-21.3,47.9-47.2,47.8c-26.2-0.1-47.8-21.8-47.8-48c0.1-26,21.9-47.6,48-47.8
		C2748.1,1727.7,2773.2,1748.4,2771.3,1775.9z"/>
	<path fill="#F1F5F9" d="M2771.3,1539.1c1.7,25-20.6,47.2-46.8,47.3c-26.4,0.1-48.4-21.9-48.1-48.4c0.3-26,22.2-47.4,48.4-47.4
		C2748,1490.7,2773.4,1511,2771.3,1539.1z"/>
	<path fill="#F1F5F9" d="M2771.3,1301.8c1.8,25.4-21.1,47.7-47.5,47.4c-26.2-0.3-47.7-22.1-47.5-48.3c0.2-26,22.1-47.4,48.3-47.5
		C2748,1253.5,2773.3,1273.9,2771.3,1301.8z"/>
	<path fill="#F1F5F9" d="M2771.3,1064.5c1.8,25.7-21.2,47.8-47.3,47.6c-26.2-0.2-47.8-22-47.6-48.1c0.1-26,22-47.5,48.1-47.7
		C2748,1016.2,2773.3,1036.8,2771.3,1064.5z"/>
	<path fill="#F1F5F9" d="M2771.3,827.1c1.9,26.1-21.3,47.9-47.1,47.8c-26.2-0.1-47.9-21.8-47.8-47.9c0-26,21.9-47.6,47.9-47.9
		C2748.1,779,2773.2,799.7,2771.3,827.1z"/>
	<path fill="#F1F5F9" d="M2771.3,590.1c1.8,25.8-21.2,47.8-47.3,47.6c-26.2-0.2-47.8-22-47.6-48.1c0.1-26,22-47.5,48.1-47.7
		C2748,541.9,2773.3,562.5,2771.3,590.1z"/>
	<path fill="#F1F5F9" d="M2771.3,352.7c1.9,26.2-21.3,48-47,47.9c-26.2,0-47.9-21.7-47.9-47.8c0-26,21.8-47.7,47.8-48
		C2748.2,304.6,2773.2,325.5,2771.3,352.7z"/>
	<path fill="#F1F5F9" d="M2771.3,116.1c1.7,24.9-20.6,47.2-46.8,47.3c-26.5,0.1-48.4-22-48.1-48.4c0.3-26,22.3-47.4,48.4-47.3
		C2748,67.7,2773.4,88,2771.3,116.1z"/>
</g>
</svg>
